<?xml version="1.0" encoding="UTF-8"?>
<svg width="1200" height="630" viewBox="0 0 1200 630" xmlns="http://www.w3.org/2000/svg">
  <!-- Background -->
  <rect width="1200" height="630" fill="#ffffff" />
  
  <!-- Blue Header -->
  <rect width="1200" height="100" fill="#1e40af" />
  <text x="600" y="65" font-family="Verdana" font-size="32" fill="#ffffff" text-anchor="middle" font-weight="bold">My Top Warplet Traders</text>
  
  <!-- Table Header -->
  <rect x="100" y="120" width="1000" height="50" fill="#f0f9ff" />
  <text x="150" y="150" font-family="Verdana" font-size="20" fill="#1e40af" font-weight="bold">User</text>
  <text x="500" y="150" font-family="Verdana" font-size="20" fill="#1e40af" font-weight="bold">Token</text>
  <text x="850" y="150" font-family="Verdana" font-size="20" fill="#1e40af" font-weight="bold">Earnings (7d)</text>
  
  <!-- Table Rows -->
  <!-- Row 1 -->
  <rect x="100" y="170" width="1000" height="60" fill="#f8fafc" />
  <circle cx="150" cy="200" r="20" fill="#9333ea" />
  <text x="190" y="205" font-family="Verdana" font-size="18" fill="#000000">Warplet User 1</text>
  <text x="500" y="205" font-family="Verdana" font-size="18" fill="#000000">$WETH</text>
  <text x="850" y="205" font-family="Verdana" font-size="18" fill="#22c55e">+$2,543.21</text>
  
  <!-- Row 2 -->
  <rect x="100" y="230" width="1000" height="60" fill="#ffffff" />
  <circle cx="150" cy="260" r="20" fill="#9333ea" />
  <text x="190" y="265" font-family="Verdana" font-size="18" fill="#000000">Warplet User 2</text>
  <text x="500" y="265" font-family="Verdana" font-size="18" fill="#000000">$ETH</text>
  <text x="850" y="265" font-family="Verdana" font-size="18" fill="#22c55e">+$1,876.54</text>
  
  <!-- Row 3 -->
  <rect x="100" y="290" width="1000" height="60" fill="#f8fafc" />
  <circle cx="150" cy="320" r="20" fill="#9333ea" />
  <text x="190" y="325" font-family="Verdana" font-size="18" fill="#000000">Warplet User 3</text>
  <text x="500" y="325" font-family="Verdana" font-size="18" fill="#000000">$ARB</text>
  <text x="850" y="325" font-family="Verdana" font-size="18" fill="#22c55e">+$1,432.10</text>
  
  <!-- Row 4 -->
  <rect x="100" y="350" width="1000" height="60" fill="#ffffff" />
  <circle cx="150" cy="380" r="20" fill="#9333ea" />
  <text x="190" y="385" font-family="Verdana" font-size="18" fill="#000000">Warplet User 4</text>
  <text x="500" y="385" font-family="Verdana" font-size="18" fill="#000000">$DEGEN</text>
  <text x="850" y="385" font-family="Verdana" font-size="18" fill="#22c55e">+$987.65</text>
  
  <!-- Row 5 -->
  <rect x="100" y="410" width="1000" height="60" fill="#f8fafc" />
  <circle cx="150" cy="440" r="20" fill="#9333ea" />
  <text x="190" y="445" font-family="Verdana" font-size="18" fill="#000000">Warplet User 5</text>
  <text x="500" y="445" font-family="Verdana" font-size="18" fill="#000000">$BASE</text>
  <text x="850" y="445" font-family="Verdana" font-size="18" fill="#22c55e">+$765.43</text>
  
  <!-- Footer -->
  <rect x="525" y="520" width="150" height="30" rx="5" fill="white" />
  <text x="600" y="540" font-family="Verdana" font-size="12" fill="#000000" text-anchor="middle">Frame created by 0xJudd</text>
</svg>